<?xml version="1.0" encoding="utf-8"?>
<!-- Generator: Adobe Illustrator 27.0.0, SVG Export Plug-In . SVG Version: 6.00 Build 0)  -->
<svg version="1.1" id="Layer_1" xmlns="http://www.w3.org/2000/svg" xmlns:xlink="http://www.w3.org/1999/xlink" x="0px" y="0px"
	 viewBox="0 0 1920 1080" style="enable-background:new 0 0 1920 1080;" xml:space="preserve">
<style type="text/css">
	.st0{fill:#E1251B;}
	.st1{fill:#FFFFFF;}
	.st2{fill:#54565A;}
</style>
<g>
	<g>
		<g>
			<path class="st0" d="M525.7,395.7c-36.9,0-73,12.4-102,35c4.2,5.5,8.2,11.1,11.9,16.9c0.8,1.2,0.5,2.8-0.7,3.6
				c-0.5,0.4-1.1,0.5-1.6,0.5c-0.8,0-1.5-0.3-2-0.9c-5.3-5.9-11.2-11.6-17.4-16.7c0,0-1.1-0.9-1.5-1.3l-1.5-1.2
				c-0.9-0.7-1.8-1.4-2.8-2.2l-0.2-0.1c-0.5-0.4-1-0.7-1.4-1.1c-0.5-0.4-1-0.7-1.5-1.1c0,0-1.2-0.9-1.7-1.2
				c-0.6-0.4-1.1-0.8-1.7-1.2c-0.5-0.3-1-0.7-1.5-1c-0.6-0.4-1.2-0.8-1.8-1.2l-1.5-1c0,0-1.3-0.8-1.8-1.1l-1.7-1c-1-0.6-2-1.2-3-1.8
				l-1.8-1c-0.4-0.2-1.9-1-1.9-1c-0.5-0.3-1-0.6-1.6-0.8c-0.5-0.3-1-0.5-1.5-0.8c0,0-1.4-0.7-2-1c-0.6-0.3-1.2-0.6-1.8-0.9
				c-0.6-0.3-1.2-0.6-1.8-0.9l-1.8-0.8c-0.7-0.3-1.4-0.6-2.2-1c-0.8-0.3-1.6-0.7-2.4-1c-0.8-0.3-1.7-0.7-2.5-1l-1.7-0.6
				c-0.7-0.3-1.4-0.5-2.1-0.8l-1.8-0.6c-0.7-0.2-1.4-0.5-2.1-0.7c-0.6-0.2-1.1-0.4-1.7-0.6c-0.7-0.2-1.5-0.5-2.2-0.7l-1.6-0.5
				c-1-0.3-2-0.6-3-0.9l-1.4-0.4c-1.1-0.3-2.2-0.6-3.3-0.9l-1.5-0.4c-0.8-0.2-1.7-0.4-2.5-0.6l-1.7-0.4c-0.8-0.2-1.6-0.3-2.4-0.5
				l-1.6-0.3c-0.9-0.2-1.7-0.3-2.6-0.5l-1.4-0.2c-1.3-0.2-2.5-0.4-3.8-0.6l-0.4-0.1c-1.3-0.2-2.7-0.3-4-0.5l-1.4-0.1
				c-0.9-0.1-1.9-0.2-2.8-0.3l-1.6-0.1c-0.9-0.1-1.8-0.1-2.7-0.2l-1.6-0.1c-1-0.1-1.9-0.1-2.9-0.1l-1.4,0c-1.4,0-2.8-0.1-4.3-0.1
				c-6.9,0-13.8,0.4-20.6,1.3l-1.1,0.1c-30.6,4-59.4,16.5-83.4,36.1c-1.4,1.1-2.7,2.2-4,3.4c-1.8,1.6-3.6,3.2-5.4,4.9l-0.3,0.2
				c-8.2,7.8-15.7,16.6-22.1,26c-0.6,0.9-1.2,1.8-1.8,2.7c-3,4.5-5.8,9.3-8.3,14.1c-2.3,4.3-4.3,8.6-6.1,12.9
				c-0.5,1.2-1,2.5-1.5,3.8c-1,2.5-1.9,5.1-2.8,7.6c-0.9,2.6-1.7,5.2-2.4,7.8c-0.8,2.6-1.4,5.3-2.1,8c-0.3,1.3-0.6,2.7-0.9,4
				c-0.5,2.7-1,5.4-1.5,8.2c-1.3,8.3-1.9,16.8-1.9,25.3c0,5.8,0.3,11.7,0.9,17.5c0.2,2.4,0.6,4.8,0.9,7.3c0.2,1.6,0.5,3.1,0.8,4.7
				c0.9,5,2,10,3.4,15c0.2,0.8,0.4,1.5,0.6,2.2c7.8,26.6,22.3,51.1,42,70.8c31.4,31.4,73.1,48.7,117.5,48.7
				c47.1,0,92.2-20.1,123.7-55.2c0.5-0.6,1.3-0.9,2-0.9c0.6,0,1.1,0.2,1.6,0.5c1.1,0.8,1.4,2.4,0.7,3.6
				c-32.6,51.5-85.1,86.4-144.7,96.6c40.3,34.2,82.5,66.9,125.7,97.1c80.4-56.3,156.4-120,226-189.5c0.1-0.3,0.3-0.6,0.6-0.9
				c31.4-31.4,48.7-73.1,48.7-117.5C691.9,470.2,617.3,395.7,525.7,395.7z M613.1,622.3c0.7,1,0.7,2.2,0,3.2
				c-0.5,0.7-1.3,1.1-2.2,1.1c-0.3,0-0.6,0-0.8-0.1l-71-23.1l-43.9,60.4c-0.5,0.7-1.3,1.1-2.2,1.1c-0.3,0-0.6,0-0.8-0.1
				c-1.1-0.4-1.9-1.4-1.9-2.6v-74.7l-71-23.1c-1.1-0.4-1.9-1.4-1.9-2.6s0.8-2.2,1.9-2.6l71-23.1v-74.7c0-1.2,0.8-2.2,1.9-2.6
				c0.3-0.1,0.6-0.1,0.8-0.1c0.9,0,1.7,0.4,2.2,1.1l43.9,60.4l71-23.1c0.3-0.1,0.6-0.1,0.8-0.1c0.9,0,1.7,0.4,2.2,1.1
				c0.7,1,0.7,2.2,0,3.2l-43.9,60.4L613.1,622.3z"/>
			<path class="st0" d="M879.1,464c-0.4-0.6-1.1-1-1.9-1c-0.2,0-0.5,0-0.7,0.1l-60.3,19.6L779,431.5c-0.4-0.6-1.1-1-1.9-1
				c-0.2,0-0.5,0-0.7,0.1c-1,0.3-1.6,1.2-1.6,2.2v63.4l-60.3,19.6c-0.9,0.3-1.6,1.2-1.6,2.2c0,1,0.6,1.9,1.6,2.2l60.3,19.6v63.4
				c0,1,0.6,1.9,1.6,2.2c0.2,0.1,0.5,0.1,0.7,0.1c0.7,0,1.4-0.3,1.9-1l37.2-51.3l60.3,19.6c0.2,0.1,0.5,0.1,0.7,0.1
				c0.7,0,1.4-0.3,1.9-0.9c0.6-0.8,0.6-1.9,0-2.7L841.8,518l37.2-51.3C879.6,465.9,879.6,464.8,879.1,464z"/>
			<path class="st0" d="M903.7,300.5c-0.3-0.4-0.8-0.7-1.3-0.7c-0.2,0-0.3,0-0.5,0.1l-41.5,13.5l-25.6-35.3
				c-0.3-0.4-0.8-0.7-1.3-0.7c-0.2,0-0.3,0-0.5,0.1c-0.7,0.2-1.1,0.8-1.1,1.5v43.6l-41.5,13.5c-0.7,0.2-1.1,0.8-1.1,1.5
				s0.4,1.3,1.1,1.5l41.5,13.5v43.6c0,0.7,0.4,1.3,1.1,1.5c0.2,0.1,0.3,0.1,0.5,0.1c0.5,0,1-0.2,1.3-0.7l25.6-35.3l41.5,13.5
				c0.2,0.1,0.3,0.1,0.5,0.1c0.5,0,1-0.2,1.3-0.7c0.4-0.6,0.4-1.3,0-1.9l-25.6-35.3l25.6-35.3C904.1,301.8,904.1,301,903.7,300.5z"
				/>
			<path class="st0" d="M641.7,146.4l41.5,13.5v43.6c0,0.7,0.4,1.3,1.1,1.5c0.2,0.1,0.3,0.1,0.5,0.1c0.5,0,1-0.2,1.3-0.7l25.6-35.3
				l41.5,13.5c0.2,0.1,0.3,0.1,0.5,0.1c0.5,0,1-0.2,1.3-0.7c0.4-0.6,0.4-1.3,0-1.9l-25.6-35.3l25.6-35.3c0.4-0.6,0.4-1.3,0-1.9
				c-0.3-0.4-0.8-0.7-1.3-0.7c-0.2,0-0.3,0-0.5,0.1l-41.5,13.5l-25.6-35.3c-0.3-0.4-0.8-0.7-1.3-0.7c-0.2,0-0.3,0-0.5,0.1
				c-0.7,0.2-1.1,0.8-1.1,1.5v43.6l-41.5,13.5c-0.7,0.2-1.1,0.8-1.1,1.5C640.6,145.6,641,146.2,641.7,146.4z"/>
			<path class="st0" d="M498.7,223.6l28.2,9.2v29.7c0,0.5,0.3,0.9,0.8,1c0.1,0,0.2,0.1,0.3,0.1c0.3,0,0.7-0.2,0.9-0.5l17.4-24
				l28.2,9.2c0.1,0,0.2,0.1,0.3,0.1c0.3,0,0.7-0.2,0.9-0.5c0.3-0.4,0.3-0.9,0-1.3l-17.4-24l17.4-24c0.3-0.4,0.3-0.9,0-1.3
				c-0.2-0.3-0.5-0.5-0.9-0.5c-0.1,0-0.2,0-0.3,0.1l-28.2,9.2l-17.4-24c-0.2-0.3-0.5-0.5-0.9-0.5c-0.1,0-0.2,0-0.3,0.1
				c-0.5,0.2-0.8,0.6-0.8,1v29.7l-28.2,9.2c-0.4,0.2-0.8,0.6-0.8,1C498,223.1,498.3,223.5,498.7,223.6z"/>
			<path class="st0" d="M1030,271.4l17.4-24c0.3-0.4,0.3-0.9,0-1.3c-0.2-0.3-0.5-0.5-0.9-0.5c-0.1,0-0.2,0-0.3,0.1l-28.2,9.2
				l-17.4-24c-0.2-0.3-0.5-0.5-0.9-0.5c-0.1,0-0.2,0-0.3,0.1c-0.5,0.2-0.8,0.6-0.8,1v29.7l-28.2,9.2c-0.5,0.2-0.8,0.6-0.8,1
				s0.3,0.9,0.8,1l28.2,9.2v29.7c0,0.5,0.3,0.9,0.8,1c0.1,0,0.2,0.1,0.3,0.1c0.3,0,0.7-0.2,0.9-0.5l17.4-24l28.2,9.2
				c0.1,0,0.2,0.1,0.3,0.1c0.3,0,0.7-0.2,0.9-0.5c0.3-0.4,0.3-0.9,0-1.3L1030,271.4z"/>
			<path class="st0" d="M916.8,171.7c-0.2-0.3-0.5-0.5-0.9-0.5c-0.1,0-0.2,0-0.3,0.1l-28.2,9.2l-17.4-24c-0.2-0.3-0.5-0.5-0.9-0.5
				c-0.1,0-0.2,0-0.3,0.1c-0.5,0.2-0.8,0.6-0.8,1v29.7l-28.2,9.2c-0.5,0.2-0.8,0.6-0.8,1c0,0.5,0.3,0.9,0.8,1l28.2,9.2v29.7
				c0,0.5,0.3,0.9,0.8,1c0.1,0,0.2,0.1,0.3,0.1c0.3,0,0.7-0.2,0.9-0.5l17.4-24l28.2,9.2c0.1,0,0.2,0.1,0.3,0.1
				c0.3,0,0.7-0.2,0.9-0.5c0.3-0.4,0.3-0.9,0-1.3l-17.4-24l17.4-24C917.1,172.6,917.1,172.1,916.8,171.7z"/>
			<path class="st0" d="M970.3,99c0.1,0,0.2,0.1,0.3,0.1c0.3,0,0.7-0.2,0.9-0.5l17.4-24l28.2,9.2c0.1,0,0.2,0.1,0.3,0.1
				c0.3,0,0.7-0.2,0.9-0.5c0.3-0.4,0.3-0.9,0-1.3l-17.4-24l17.4-24c0.3-0.4,0.3-0.9,0-1.3c-0.2-0.3-0.5-0.5-0.9-0.5
				c-0.1,0-0.2,0-0.3,0.1l-28.2,9.2l-17.4-24c-0.2-0.3-0.5-0.5-0.9-0.5c-0.1,0-0.2,0-0.3,0.1c-0.5,0.2-0.8,0.6-0.8,1v29.7L941.3,57
				c-0.4,0.2-0.8,0.6-0.8,1c0,0.5,0.3,0.9,0.8,1l28.2,9.2v29.7C969.5,98.4,969.8,98.9,970.3,99z"/>
			<path class="st0" d="M589.4,327.1l60.3,19.6v63.4c0,1,0.6,1.9,1.6,2.2c0.2,0.1,0.5,0.1,0.7,0.1c0.7,0,1.4-0.3,1.9-1l37.2-51.3
				l60.3,19.6c0.2,0.1,0.5,0.1,0.7,0.1c0.7,0,1.4-0.3,1.9-1c0.6-0.8,0.6-1.9,0-2.7l-37.2-51.3l37.2-51.3c0.6-0.8,0.6-1.9,0-2.7
				c-0.4-0.6-1.1-1-1.9-1c-0.2,0-0.5,0-0.7,0.1l-60.3,19.6l-37.2-51.3c-0.4-0.6-1.1-1-1.9-1c-0.2,0-0.5,0-0.7,0.1
				c-1,0.3-1.6,1.2-1.6,2.2v63.4l-60.3,19.6c-0.9,0.3-1.6,1.2-1.6,2.2C587.8,325.9,588.5,326.8,589.4,327.1z"/>
		</g>
		<path class="st1" d="M613.1,622.3c0.7,1,0.7,2.2,0,3.2c-0.5,0.7-1.3,1.1-2.2,1.1c-0.3,0-0.6,0-0.8-0.1l-71-23.1l-43.9,60.4
			c-0.5,0.7-1.3,1.1-2.2,1.1c-0.3,0-0.6,0-0.8-0.1c-1.1-0.4-1.9-1.4-1.9-2.6v-74.7l-71-23.1c-1.1-0.4-1.9-1.4-1.9-2.6
			s0.8-2.2,1.9-2.6l71-23.1v-74.7c0-1.2,0.8-2.2,1.9-2.6c0.3-0.1,0.6-0.1,0.8-0.1c0.9,0,1.7,0.4,2.2,1.1l43.9,60.4l71-23.1
			c0.3-0.1,0.6-0.1,0.8-0.1c0.9,0,1.7,0.4,2.2,1.1c0.7,1,0.7,2.2,0,3.2l-43.9,60.4L613.1,622.3z"/>
	</g>
	<g>
		<path class="st2" d="M1059.8,535.5H946.6v84.5c0,1.3,0.3,2,1.3,2.3l24.7,5.3c1,0.3,1.7,1,1.7,2.3v9c0,1.7-0.7,2.3-2,2.3h-77.2
			c-1,0-1.7-0.7-1.7-2v-8.4c0-1,0.7-2,1.7-2.3l16.7-3.3c4.3-1,5.7-4.3,5.7-8V440.7c0-1-0.7-2-1.7-2.3l-23.7-5.3
			c-1-0.3-1.7-1-1.7-2.3v-9c0-1.7,0.7-2.3,2-2.3h77.2c1,0,1.7,0.7,1.7,2v8.4c0,1.3-0.3,2-1.3,2.3l-17.7,3.3c-4.3,1-5.7,4.3-5.7,8
			v71.8h113.3v-73.5c0-2.3-0.7-3.3-2.3-3.7l-24.1-5c-1-0.3-1.7-1-1.7-2.3v-9c0-1.7,0.7-2.3,2-2.3h77.5c1,0,1.7,0.7,1.7,2v8.4
			c0,1.3-0.3,2-1.3,2.3l-17,3.3c-4.3,1-5.7,4.3-5.7,8v176.7c0,1.3,0.3,2,1.3,2.3l24,5.3c1,0.3,1.7,1,1.7,2.3v9c0,1.7-0.7,2.3-2,2.3
			h-77.5c-1,0-1.7-0.7-1.7-2v-8.4c0-1.3,0.3-2,1.3-2.3l18-3.3c4.3-1,5.7-4.3,5.7-8L1059.8,535.5L1059.8,535.5z"/>
		<path class="st2" d="M1245.6,620.7c0.3,1,0.3,2-0.7,2.3l-36.4,16.7c-5.3,2.3-12.7,4.7-16.4,4.7c-19.7,0-37.4-8.7-50.4-22.7
			c-13.4-14-21.4-33.7-21.4-56.5c0-21.7,7.7-42.1,20.4-56.8c12.7-14.4,30.4-23.4,50.8-23.4c16,0,30.1,6,40.4,17.7
			c10.4,11.7,16.4,28.4,16.4,50.1l-23.7,10l-75.8,0.7c0.3,16,4.7,30.4,13,41.1s20.7,17.4,38.1,17.4c12,0,25.4-5,39.8-11.4
			c1-0.3,1.7-0.3,2,0.7L1245.6,620.7z M1164.1,506.5c-6.3,5.7-14,22.1-15.4,42.1l71.2-4c0-11-3-21.7-9-29.7
			c-6-7.7-15.4-12.7-26.4-12.7C1177.1,502.1,1170.4,503.5,1164.1,506.5z"/>
		<path class="st2" d="M1307.4,643.4c-13.4,0-24.7-5.7-32.7-14c-8-8.4-12.4-20-12.4-31.7c0-18.4,8.7-30.4,29.7-37.1
			c0.3,0,1.7-0.3,4.7-1.3c2.7-0.7,6-1.7,10.3-3c4-1,8.4-2.3,13-3.7c9.4-2.7,18-5.3,24.4-7.4l6-2v-4c0-25.1-10.7-35.8-28.1-35.8
			l-35.4,23.7c-1,0.3-1.7,0.3-2.3-0.3l-18-15c-1-1-1-2,0.3-3l11.4-6.3c9-5,20.4-9.7,32.4-13c5.7-1.7,11.7-2.3,17.4-2.3
			c13.4,0,25.7,3.3,33.4,9.7c12,10.3,15.4,23.4,15.4,41.8v76.2l24.4,7.7c1,0.3,1.3,1,1.3,2.3v6.7c0,3-3.3,6-10,9.7
			c-3.3,1.7-8.4,2.7-15.4,2.7c-4,0-9.7-2-14.7-6.3c-5.3-4-10-10.3-11.4-19.7c0-1-0.3-1-1.3,0c-4.3,5.7-12.4,12-20.4,17
			C1321.1,640.1,1312.8,643.4,1307.4,643.4z M1350.5,561.6c-20,3-38.8,6.3-52.4,10.4c-4,1-9,11.4-9,22.1c0,15,6.3,26.4,24.7,26.4
			c8,0,17.4-2.7,24.4-8.4c7-5.3,12.4-13.7,12.4-25.4V561.6z"/>
		<path class="st2" d="M1457.8,617.7c0,4.3,2.3,5.7,4.7,6.7l15.4,5.7c1,0.3,1.3,1,1.3,2l-0.3,8c0,1-0.7,1.3-2,1.3H1411
			c-1,0-1.7-0.7-1.7-2v-7.4c0-1,0.3-1.7,1.3-2l15-3c3.7-1,5.3-3.3,5.3-7.4V430.6c0-2-0.3-3-1.3-3.3l-19-7.4c-1-0.3-1.3-0.7-1.3-1.7
			l1.3-5.7c0.3-1,0.7-1.3,1.3-1.3l40.4-6c3.7-0.7,5.3,0.3,5.3,3V617.7z"/>
		<path class="st2" d="M1531.3,507.5v77.2c0,16,0.7,25.7,2.7,31.1c2,5.7,5.3,7.4,11,7.4c9,0,15-0.7,18.7-2c3.7-1.3,6-2,7-2
			s1.3,0.3,1.7,1.3l1.7,7c0.3,1,0,2-0.7,2.3c-3.7,2.3-10.7,5.7-17.7,8.4c-7,3-14.4,5.7-18.4,5.7c-7.7,0-15.7-3-22.1-9.4
			c-6.3-6.3-10.7-15.7-10.7-28.7v-98.9h-22.1c-1,0-1.7-0.7-1.7-1.7v-8c0-1.3,0.7-2.3,2-2.7c7.7-1,14.4-2,23.4-4.3l5-35.4
			c0.3-2,1-3,2.7-3.3l15-3.7c1.3,0,2,0.7,2,2.3v40.4h36.4c1.7,0,2.3,1,2.3,3v11.7c0,1.7-0.7,2.3-2,2.3L1531.3,507.5L1531.3,507.5z"
			/>
		<path class="st2" d="M1629.5,518.8c13.7-11.7,33.4-23.4,47.8-28.4c4-1.3,8.4-2.3,13.4-2.3c9,0,23.7,5,32.1,19.7
			c4.3,7.4,6.3,15.4,6.3,24v79.5c0,5.3,1.3,7.7,6.7,10l8.7,4c1,0.3,1,1.3,0.7,2.3l-13,16.4c-0.7,1-2,1.3-3.7,0.7
			c-4.3-1.3-8.7-3-12.4-4.7c-4-1.7-6.3-2.7-6.7-3c-1-0.3-2.7-1.3-4-3.7c-1.7-2.3-3-6-3-12.4v-79.8c0-7.7-1.7-17.7-7-24
			c-5-5.7-10-7.7-16.4-7.7c-1.3,0-2.3,0.3-3.3,0.7c-16.4,7-33.7,16-45.8,23.7v83.9c0,3.3,1.7,5.7,4.7,6.7l15.4,5.7
			c1,0.3,1.3,1,1.3,2l-0.3,8c0,1-0.3,1.3-1.3,1.3H1583c-1,0-1.7-0.7-1.7-2v-7.4c0-1,0.3-1.7,1.3-2l15-3c3.7-1,5.3-3.3,5.3-7.4V430.6
			c0-1.7-0.3-3-1.3-3.3l-19-7.4c-1-0.3-1.3-0.7-1.3-1.7l0.3-4c0-1.7,0.7-2.3,2.3-2.7l40.4-6.3c3.3-0.7,5,0.3,5,3V518.8z"/>
		<g>
			<path class="st2" d="M1209.7,956.6h-27v20.1c0,0.3,0.1,0.5,0.3,0.6l5.9,1.3c0.2,0.1,0.4,0.2,0.4,0.6v2.1c0,0.4-0.2,0.6-0.5,0.6
				h-18.4c-0.2,0-0.4-0.2-0.4-0.5v-2c0-0.2,0.2-0.5,0.4-0.6l4-0.8c1-0.2,1.4-1,1.4-1.9V934c0-0.2-0.2-0.5-0.4-0.6l-5.6-1.3
				c-0.2-0.1-0.4-0.2-0.4-0.6v-2.1c0-0.4,0.2-0.6,0.5-0.6h18.4c0.2,0,0.4,0.2,0.4,0.5v2c0,0.3-0.1,0.5-0.3,0.6l-4.2,0.8
				c-1,0.2-1.4,1-1.4,1.9v17.1h27v-17.5c0-0.6-0.2-0.8-0.6-0.9l-5.7-1.2c-0.2-0.1-0.4-0.2-0.4-0.6v-2.1c0-0.4,0.2-0.6,0.5-0.6h18.5
				c0.2,0,0.4,0.2,0.4,0.5v2c0,0.3-0.1,0.5-0.3,0.6l-4.1,0.8c-1,0.2-1.4,1-1.4,1.9v42.1c0,0.3,0.1,0.5,0.3,0.6l5.7,1.3
				c0.2,0.1,0.4,0.2,0.4,0.6v2.1c0,0.4-0.2,0.6-0.5,0.6h-18.5c-0.2,0-0.4-0.2-0.4-0.5v-2c0-0.3,0.1-0.5,0.3-0.6l4.3-0.8
				c1-0.2,1.4-1,1.4-1.9L1209.7,956.6L1209.7,956.6z"/>
			<path class="st2" d="M1263.7,928.9c0.4,0,0.6,0.2,0.6,0.6c0,0.3-0.2,1-0.4,1.5c-0.7,2.3-1.5,5.9-2.1,8.5
				c-0.1,0.2-0.2,0.4-0.6,0.4l-2.5,0.2c-0.4,0-0.6-0.2-0.6-0.4c-1-4.5-2.8-6.6-7.6-6.7l-11.2-0.1v19.2h18.2l-0.3,2.1
				c-0.3,2.2-1.8,2.7-3.7,2.7h-14.2v14.6c0,3.7,0.2,6.3,2.8,6.3h1.8c0.9,0,1.8,0,2.9-0.1c1,0,2.1,0,3.2-0.1c2.1,0,4.5-0.2,6.3-0.6
				c1.8-0.5,2.9-1.4,3.8-2.9l1.6-2.9c0.2-0.2,0.3-0.3,0.6-0.3l3.2,0.2c0.2,0,0.3,0.2,0.3,0.4c-0.2,1.8-0.4,3.2-0.6,4.7l-1,4.9
				c-0.2,0.6-0.4,0.8-0.8,0.8h-36.3c-0.2,0-0.2-0.1-0.2-0.2v-2.5c0-0.2,0.1-0.4,0.3-0.5l4-0.8c1.2-0.2,1.5-1,1.5-2v-41.5
				c0-0.4-0.2-0.7-0.6-0.8l-5.3-1.2c-0.2-0.1-0.3-0.2-0.3-0.5v-2.5c0-0.2,0.1-0.3,0.2-0.3L1263.7,928.9L1263.7,928.9z"/>
			<path class="st2" d="M1300.6,963.6h-18.4l-4.5,13.4c-0.1,0.2-0.1,0.5,0.2,0.6l3.7,1.2c0.2,0.1,0.4,0.2,0.4,0.5v2
				c0,0.4-0.2,0.6-0.4,0.6h-14.9c-0.2,0-0.4-0.2-0.4-0.4v-2.1c0-0.2,0.1-0.4,0.3-0.5c0.7-0.2,1.4-0.4,2-0.6c1.3-0.3,2.6-0.8,3.2-1.4
				c0.2-0.2,0.5-0.6,0.6-0.9l16.3-44.2c0.2-0.7,0.7-1.2,1-1.4c1-0.9,2.4-1.6,3.3-2c0.7-0.4,1.3-0.6,1.6-0.6c0.2,0,0.4,0.1,0.5,0.3
				l16.9,47.1c0.4,1.2,1.1,1.9,2.1,2.1l4.1,1.1c0.2,0.1,0.3,0.2,0.3,0.6v2.4c0,0.3-0.2,0.5-0.4,0.5h-17.3c-0.2,0-0.4-0.2-0.4-0.5
				v-2.4c0-0.2,0.1-0.5,0.3-0.6l4.2-1.1c0.3-0.1,0.4-0.3,0.2-0.7L1300.6,963.6z M1283.7,959h15.2l-7.2-20.6
				c-0.1-0.3-0.3-0.5-0.6-0.5c-0.4,0-0.6,0.2-0.6,0.5L1283.7,959z"/>
			<path class="st2" d="M1345.8,957.6c3.9,5.6,7.2,9.9,10,12.8c2.8,2.9,5,4.8,6.7,5.6c1.4,0.6,2.1,0.9,3,1.1
				c0.2,0.1,0.3,0.2,0.3,0.3v2.6c0,0.2-0.1,0.3-0.2,0.4c-0.1,0.2-0.3,0.4-0.7,0.6c-1.5,1-2.9,1.3-4.6,1.3c-2.1,0-4.3-1.1-6.6-3.3
				c-2.3-2.1-4.9-5.6-7.8-10.4l-6.3-10.3h-6.2v18.2c0,0.3,0.1,0.5,0.3,0.6l5.5,1.2c0.2,0.1,0.3,0.2,0.3,0.6v2.4
				c0,0.4-0.2,0.6-0.4,0.6h-17.8c-0.2,0-0.4-0.2-0.4-0.5v-2.2c0-0.3,0.1-0.5,0.3-0.6l3.9-0.8c1-0.2,1.4-0.9,1.4-1.8v-41.8
				c0-0.3-0.2-0.6-0.6-0.6l-5.2-1.1c-0.2-0.1-0.3-0.2-0.3-0.6v-2.4c0-0.4,0.2-0.6,0.4-0.6h20c5.2,0,9.6,1.3,12.8,3.7
				c3.1,2.4,4.9,5.9,4.9,10.3c0,4.5-1.7,7.9-4.1,10.3C1351.9,955.6,1348.7,957,1345.8,957.6z M1333.5,954.8h5.5
				c4.7,0,7.8-1.1,9.7-3.1c1.9-1.9,2.7-4.9,2.7-8.6c0-6-3.5-10.5-11.7-10.5c-2.8,0-4.2,0.2-6.2,0.8L1333.5,954.8L1333.5,954.8z"/>
			<path class="st2" d="M1387.6,932.6c-0.2,0-0.2,0.1-0.2,0.2v43.6c0,0.4,0.2,0.6,0.6,0.7l5.5,1.1c0.2,0.1,0.4,0.2,0.4,0.6v2.5
				c0,0.4-0.2,0.6-0.5,0.6h-18.2c-0.2,0-0.4-0.2-0.4-0.5V979c0-0.3,0.1-0.5,0.3-0.6l4.1-0.8c1-0.2,1.4-1,1.4-1.9v-42.9
				c0-0.2-0.1-0.2-0.2-0.2l-8.1,0.4c-4.4,0.2-6.8,1.4-7.6,5.6c-0.1,0.4-0.2,0.6-0.6,0.6h-2.1c-0.4,0-0.6-0.2-0.6-0.6l0.8-9.4
				c0.1-0.7,0.6-1.2,1.8-1c7,0.9,13.2,0.9,20.3,0.9c3.5,0,6.6-0.1,9.7-0.2c3.1-0.1,6.1-0.3,9.6-0.6c0.9-0.1,2-0.1,2.1,0.6l0.6,9.8
				c0,0.4-0.2,0.6-0.6,0.6h-2.1c-0.2,0-0.5-0.2-0.6-0.6c-0.4-1.3-1-2.7-1.8-3.7c-1-1-2.2-1.8-4.1-1.9L1387.6,932.6z"/>
			<path class="st2" d="M1445,982.9c-7.6,0-13.8-3.1-18.2-7.9c-4.4-4.8-6.8-11.1-6.8-17.8c0-7.9,2.9-15.1,7.7-20.4
				c4.7-5.3,11.2-8.7,18.4-8.7c7.4,0,13.7,3,18.1,7.8s7,11.3,7,18c0,7.9-3,15.1-7.8,20.4C1458.7,979.5,1452,982.9,1445,982.9z
				 M1463.8,956.1c0-6.6-2.3-12.5-5.9-16.7c-3.6-4.1-8.5-6.7-13.7-6.7c-5.2,0-9.4,2.5-12.3,6.6c-2.9,4.1-4.5,9.6-4.5,15.6
				c0,6.6,2.2,12.5,5.7,16.6c3.5,4.2,8.3,6.8,13.6,6.8c5.2,0,9.5-2.5,12.4-6.6C1462.1,967.6,1463.8,962,1463.8,956.1z"/>
			<path class="st2" d="M1477.4,934.1c0-0.3-0.1-0.5-0.3-0.6l-5.6-1.3c-0.2-0.1-0.3-0.2-0.3-0.5v-2.5c0-0.2,0.1-0.3,0.2-0.3h37.1
				c0.4,0,0.6,0.2,0.6,0.6c0,0.2-0.1,0.5-0.2,1c-0.9,2.8-1.5,5.6-2.2,9.1c-0.1,0.2-0.2,0.4-0.4,0.4l-2.5,0.2c-0.3,0-0.5-0.2-0.6-0.5
				c-1-4.1-2.7-6.7-7.7-6.7l-11.1-0.1v19.5h18.6l-0.4,2.5c-0.3,1.8-1.9,2.3-3.4,2.3h-14.8v18.2c0,1,0.6,1.8,1.2,2l5.5,1.2
				c0.2,0.2,0.4,0.4,0.4,0.6l-0.1,2.2c0,0.2-0.2,0.4-0.4,0.4h-18.9c-0.3,0-0.5-0.2-0.5-0.5v-2.1c0-0.4,0.2-0.6,0.4-0.6l4.1-0.9
				c1.2-0.2,1.4-1,1.4-1.8L1477.4,934.1L1477.4,934.1z"/>
			<path class="st2" d="M1209.7,1036.1h-27v20.1c0,0.3,0.1,0.5,0.3,0.6l5.9,1.3c0.2,0.1,0.4,0.2,0.4,0.6v2.1c0,0.4-0.2,0.6-0.5,0.6
				h-18.4c-0.2,0-0.4-0.2-0.4-0.5v-2c0-0.2,0.2-0.5,0.4-0.6l4-0.8c1-0.2,1.4-1,1.4-1.9v-42.1c0-0.2-0.2-0.5-0.4-0.6l-5.6-1.3
				c-0.2-0.1-0.4-0.2-0.4-0.6v-2.1c0-0.4,0.2-0.6,0.5-0.6h18.4c0.2,0,0.4,0.2,0.4,0.5v2c0,0.3-0.1,0.5-0.3,0.6l-4.2,0.8
				c-1,0.2-1.4,1-1.4,1.9v17.1h27v-17.5c0-0.6-0.2-0.8-0.6-0.9l-5.7-1.2c-0.2-0.1-0.4-0.2-0.4-0.6v-2.1c0-0.4,0.2-0.6,0.5-0.6h18.5
				c0.2,0,0.4,0.2,0.4,0.5v2c0,0.3-0.1,0.5-0.3,0.6l-4.1,0.8c-1,0.2-1.4,1-1.4,1.9v42.1c0,0.3,0.1,0.5,0.3,0.6l5.7,1.3
				c0.2,0.1,0.4,0.2,0.4,0.6v2.1c0,0.4-0.2,0.6-0.5,0.6h-18.5c-0.2,0-0.4-0.2-0.4-0.5v-2c0-0.3,0.1-0.5,0.3-0.6l4.3-0.8
				c1-0.2,1.4-1,1.4-1.9L1209.7,1036.1L1209.7,1036.1z"/>
			<path class="st2" d="M1264.1,1008.4c0.4,0,0.6,0.2,0.6,0.6c0,0.3-0.2,1-0.4,1.5c-0.7,2.3-1.5,5.9-2.1,8.5
				c-0.1,0.2-0.2,0.4-0.6,0.4l-2.5,0.2c-0.4,0-0.6-0.2-0.6-0.4c-1-4.5-2.8-6.6-7.6-6.7l-11.2-0.1v19.2h18.2l-0.3,2.1
				c-0.3,2.2-1.8,2.7-3.7,2.7h-14.2v14.6c0,3.7,0.2,6.3,2.8,6.3h1.8c0.9,0,1.8,0,2.9-0.1c1,0,2.1,0,3.2-0.1c2.1,0,4.5-0.2,6.3-0.6
				c1.8-0.5,2.9-1.4,3.8-2.9l1.6-2.9c0.2-0.2,0.3-0.3,0.6-0.3l3.2,0.2c0.2,0,0.3,0.2,0.3,0.4c-0.2,1.8-0.4,3.2-0.6,4.7l-1,4.9
				c-0.2,0.6-0.4,0.8-0.8,0.8h-36.3c-0.2,0-0.2-0.1-0.2-0.2v-2.5c0-0.2,0.1-0.4,0.3-0.5l4-0.8c1.2-0.2,1.5-1,1.5-2v-41.5
				c0-0.4-0.2-0.7-0.6-0.8l-5.3-1.2c-0.2-0.1-0.3-0.2-0.3-0.5v-2.5c0-0.2,0.1-0.3,0.2-0.3L1264.1,1008.4L1264.1,1008.4z"/>
			<path class="st2" d="M1301.8,1043.1h-18.4l-4.5,13.4c-0.1,0.2-0.1,0.5,0.2,0.6l3.7,1.2c0.2,0.1,0.4,0.2,0.4,0.5v2
				c0,0.4-0.2,0.6-0.4,0.6h-14.9c-0.2,0-0.4-0.2-0.4-0.4v-2.1c0-0.2,0.1-0.4,0.3-0.5c0.7-0.2,1.4-0.4,2-0.6c1.3-0.3,2.6-0.8,3.2-1.4
				c0.2-0.2,0.5-0.6,0.6-0.9l16.3-44.2c0.2-0.7,0.7-1.2,1-1.4c1-0.9,2.4-1.6,3.3-2c0.7-0.4,1.3-0.6,1.6-0.6c0.2,0,0.4,0.1,0.5,0.3
				l16.9,47.1c0.4,1.2,1.1,1.9,2.1,2.1l4.1,1.1c0.2,0.1,0.3,0.2,0.3,0.6v2.4c0,0.3-0.2,0.5-0.4,0.5h-17.3c-0.2,0-0.4-0.2-0.4-0.5
				v-2.4c0-0.2,0.1-0.5,0.3-0.6l4.2-1.1c0.3-0.1,0.4-0.3,0.2-0.7L1301.8,1043.1z M1284.9,1038.5h15.2l-7.2-20.6
				c-0.1-0.3-0.3-0.5-0.6-0.5c-0.4,0-0.6,0.2-0.6,0.5L1284.9,1038.5z"/>
			<path class="st2" d="M1335.5,1051c0,3.7,0.2,6.3,2.8,6.3c0.3,0,1,0,1.8,0h2.9c2.1,0,4.5-0.1,6-0.2c2.9-0.1,4.5-0.6,5.7-1.6
				c1.2-1,1.9-2.5,3.2-4.8c0.2-0.2,0.3-0.3,0.6-0.3l3.3,0.2c0.3,0,0.4,0.2,0.3,0.4l-1.7,9.3c-0.1,0.7-0.3,1-0.6,1H1323
				c-0.2,0-0.2-0.1-0.2-0.2v-2.5c0-0.2,0.1-0.4,0.3-0.5l4-0.8c1.2-0.2,1.5-1,1.5-2v-41.8c0-0.3-0.1-0.5-0.3-0.6l-5.7-1.3
				c-0.2-0.1-0.4-0.2-0.4-0.6v-2.1c0-0.4,0.2-0.6,0.5-0.6h18.1c0.2,0,0.4,0.2,0.4,0.5v2c0,0.3-0.1,0.5-0.3,0.6l-4,0.8
				c-1,0.2-1.4,1-1.4,1.9L1335.5,1051L1335.5,1051z"/>
			<path class="st2" d="M1380.1,1012.1c-0.2,0-0.2,0.1-0.2,0.2v43.6c0,0.4,0.2,0.6,0.6,0.7l5.5,1.1c0.2,0.1,0.4,0.2,0.4,0.6v2.5
				c0,0.4-0.2,0.6-0.5,0.6h-18.2c-0.2,0-0.4-0.2-0.4-0.5v-2.3c0-0.3,0.1-0.5,0.3-0.6l4.1-0.8c1-0.2,1.4-1,1.4-1.9v-42.9
				c0-0.2-0.1-0.2-0.2-0.2l-8.1,0.4c-4.4,0.2-6.8,1.4-7.6,5.6c-0.1,0.4-0.2,0.6-0.6,0.6h-2.1c-0.4,0-0.6-0.2-0.6-0.6l0.8-9.4
				c0.1-0.7,0.6-1.2,1.8-1c7,0.9,13.2,0.9,20.3,0.9c3.5,0,6.6-0.1,9.7-0.2s6.1-0.3,9.6-0.6c0.9-0.1,2-0.1,2.1,0.6l0.6,9.8
				c0,0.4-0.2,0.6-0.6,0.6h-2.1c-0.2,0-0.5-0.2-0.6-0.6c-0.4-1.3-1-2.7-1.8-3.7c-1-1-2.2-1.8-4.1-1.9L1380.1,1012.1z"/>
			<path class="st2" d="M1441,1036.1h-27v20.1c0,0.3,0.1,0.5,0.3,0.6l5.9,1.3c0.2,0.1,0.4,0.2,0.4,0.6v2.1c0,0.4-0.2,0.6-0.5,0.6
				h-18.4c-0.2,0-0.4-0.2-0.4-0.5v-2c0-0.2,0.2-0.5,0.4-0.6l4-0.8c1-0.2,1.4-1,1.4-1.9v-42.1c0-0.2-0.2-0.5-0.4-0.6l-5.6-1.3
				c-0.2-0.1-0.4-0.2-0.4-0.6v-2.1c0-0.4,0.2-0.6,0.5-0.6h18.4c0.2,0,0.4,0.2,0.4,0.5v2c0,0.3-0.1,0.5-0.3,0.6l-4.2,0.8
				c-1,0.2-1.4,1-1.4,1.9v17.1h27v-17.5c0-0.6-0.2-0.8-0.6-0.9l-5.7-1.2c-0.2-0.1-0.4-0.2-0.4-0.6v-2.1c0-0.4,0.2-0.6,0.5-0.6h18.5
				c0.2,0,0.4,0.2,0.4,0.5v2c0,0.3-0.1,0.5-0.3,0.6l-4.1,0.8c-1,0.2-1.4,1-1.4,1.9v42.1c0,0.3,0.1,0.5,0.3,0.6l5.7,1.3
				c0.2,0.1,0.4,0.2,0.4,0.6v2.1c0,0.4-0.2,0.6-0.5,0.6h-18.5c-0.2,0-0.4-0.2-0.4-0.5v-2c0-0.3,0.1-0.5,0.3-0.6l4.3-0.8
				c1-0.2,1.4-1,1.4-1.9L1441,1036.1L1441,1036.1z"/>
			<path class="st2" d="M1465.3,1062.5c-0.2,0.2-0.6,0.4-0.8,0.4c-0.3,0-0.6-0.2-0.9-0.4l-3.9-4.1c-0.2-0.2-0.4-0.6-0.4-0.9
				c0-0.2,0.2-0.5,0.4-0.7l3.7-3.9c0.2-0.2,0.6-0.4,0.9-0.4c0.2,0,0.6,0.2,0.8,0.4l3.9,3.7c0.2,0.2,0.4,0.6,0.4,1
				c0,0.1,0,0.2-0.1,0.2l-0.5,0.7c-0.2,0.3-0.6,0.8-1.2,1.4C1467.1,1060.5,1466.3,1061.4,1465.3,1062.5z"/>
		</g>
		<g>
			<path class="st2" d="M960.3,686c-0.7,0-1,0.3-1,1v183c0,1.7,0.7,2.7,2.3,3l23,4.7c1,0.3,1.7,1,1.7,2.3v10.3c0,1.7-0.7,2.3-2,2.3
				h-76.5c-1,0-1.7-0.7-1.7-2v-9.7c0-1.3,0.3-2,1.3-2.3l17-3.3c4.3-1,5.7-4.3,5.7-8V687c0-0.7-0.3-1-1-1l-27.2,1.7
				c-18.4,1-28.7,5.7-31.7,23.4c-0.3,1.7-1,2.3-2.3,2.3h-8.7c-1.7,0-2.3-0.7-2.3-2.3l3.3-39.4c0.3-3,2.3-5,7.7-4
				c29.4,3.7,48.6,3.7,78.3,3.7c14.7,0,20.8-0.3,33.9-0.7c13-0.3,25.7-1.3,40.4-2.7c3.7-0.3,8.4-0.3,8.7,2.3l2.7,41.1
				c0,1.7-0.7,2.3-2.3,2.3h-8.7c-1,0-2-0.7-2.3-2.3c-1.7-5.3-4-11.4-7.7-15.7c-4-4.3-9.4-7.7-17.4-8L960.3,686z"/>
			<path class="st2" d="M1139.6,866l24.4,7.7c1,0.3,1.3,1,1.3,2.3v6.7c0,3-3.3,6-9.7,9.7c-3.3,1.7-8.4,2.7-15.4,2.7
				c-4.3,0-10.3-2-15.4-6.3c-5.3-4-10-10.3-11.3-19.7c0-1.7-0.3-1.7-1.3-0.3c-5,7-12.4,13.7-21.4,18.7c-9,5-18.7,8-27.7,8
				c-27,0-46.4-19.7-46.4-51.4v-80.5c0-2-0.7-3.3-1.7-3.7l-18.7-6.7c-1-0.3-1.3-0.7-1.3-1.7l0.7-5c0.3-1,1-1.7,2-2l41.7-6.3
				c2.7-0.3,4,0.7,4,3V838c0,13.4,3,22,7.7,27.4c4.7,5.3,11,7.3,17.7,7.3c6.3,0,15.7-1.7,22-5.3c7.7-3.7,15-10,22-18.4v-84.5
				c0-1.7-0.3-4-2.7-5l-17.7-6.3c-1-0.3-1.3-1-1.3-2l0.7-5c0-1,0.7-1.7,2-2l42.1-6c2.3-0.3,3.7,0.7,3.7,3L1139.6,866L1139.6,866z"/>
			<path class="st2" d="M1062.2,716c-1.3,1.3-2.3,2-3.3,2c-1.3,0-2.7-0.7-4-2l-15.7-16c-1-1-1.7-2-1.7-3c0-1,0.3-1.7,1.3-2.7
				l15.7-16c0.7-1,1.7-1.7,3.3-1.7c1,0,2.3,0.7,3.3,1.7l15.4,14.7c1.3,1.3,2,2.7,2,3.7c0,1.3-0.7,2.7-1.7,3.7L1062.2,716z"/>
			<path class="st2" d="M1114.2,716c-1.3,1.3-2.3,2-3.3,2c-1.3,0-2.7-0.7-4-2l-15.7-16c-1-1-1.7-2-1.7-3c0-1,0.3-1.7,1.3-2.7
				l15.7-16c0.7-1,1.7-1.7,3.3-1.7c1,0,2,0.7,3,1.7l15.7,14.7c1.3,1.3,2,2.7,2,3.7c0,1-0.7,2-1.7,3.7L1114.2,716z"/>
			<path class="st2" d="M1275.2,768.2c-0.3,1-1,1.3-2,1.3h-7.7c-1.3,0-2.3,0-4-1c-1.3-1-3-2-5.3-3c-5-1.3-11.4,1-17.7,5
				c-6.7,4-13,9.4-17.4,13.7c-2.3,2.3-3.3,4.3-3.3,6.3v78.1c0,2.3,0.7,4,2,4.7c1,1,2,1.7,2.7,2l15.4,5.7c1,0.3,1.3,1,1.3,2l-0.3,8
				c0,1-0.7,1.3-2,1.3H1171c-1,0-1.7-0.7-1.7-2v-7.3c0-1,0.3-1.7,1.3-2l15-3c3.7-1,5.3-3.3,5.3-7.3V763.2c0-2-0.3-3-1.3-3.3l-19-7.3
				c-1-0.3-1.3-0.7-1.3-1.7l0.7-5c0.3-1.7,1-1.7,2.3-2l40.1-6c3.3-0.7,5,0.3,5,3v30.1c0,1.3,0.3,1.7,1.3,0.7c1.3-1.3,5.3-6,9.4-10.7
				c4-4.7,8.7-9.7,12.4-12.4c6.7-6.7,13.4-9.7,20-10c6.3,0,12.7,2,18.4,4.7c1.3,0.3,2,1.3,1.7,2.7L1275.2,768.2z"/>
			<path class="st2" d="M1323.1,797.2h3.3c6.3,0,11.4-1.3,17.7-6.3c6.3-5,13.4-13,23.7-27.4c1-1,1.3-2.3,1.3-4c0-1.3-0.7-3.3-3-3.7
				l-8.7-1.7v-11.7h66.1l-0.7,10.7c-9,0.3-19.7,3-29.1,8c-12.4,6.3-21.7,17.4-36.4,39.7c19,36.1,41.4,59.4,73.5,78.5
				c1,0.3,1,1,0.3,2c-4.3,6.3-8,10.3-11,12.7c-3,2.3-6,3.3-8.7,3.3c-11.7,0-22.4-8-34.1-22.7s-24.4-36.4-39.1-64.1l-15.4,2.7v56.1
				c0,3,1.7,5.3,4.7,6.3l15.4,5.7c1,0.3,1.3,1,1.3,2l-0.3,8c0,1-0.7,1.3-2,1.3h-65.8c-1,0-1.7-0.7-1.7-2v-7.3c0-1,0.3-1.7,1.3-2
				l15-3c3.7-1,5.3-3.3,5.3-7.3V679.4c0-1.7-0.7-3-2-3.3l-18-7c-1-0.3-1.7-1-1.3-2l1-5.3c0.3-1,1-1.3,2-1.7l39.7-5.7
				c3.3-0.7,5,0.3,5,3L1323.1,797.2z"/>
			<path class="st2" d="M1487.2,869c0,5,3,5.7,4.7,6.7l15.4,5.7c1,0.3,1.3,1,1.3,2l-0.3,8c0,1-0.7,1.3-2,1.3h-65.8
				c-1,0-1.7-0.7-1.7-2v-7.3c0-1,0.3-1.7,1.3-2l15-3c3.7-1,5.3-3.3,5.3-7.3V763.2c0-1.7-0.3-2.7-1.3-3l-19-7.3c-1-0.3-1.3-1-1.3-1.7
				l0.7-5c0.3-1,1-1.7,2.3-2l40.1-6c3.7-0.7,5.3,0.3,5.3,3L1487.2,869L1487.2,869z"/>
			<path class="st2" d="M1573.4,880.4h-6.3c-7-20-15.4-41.4-23.4-60.8c-8-19.4-16-36.4-22.7-48.4c-5-8.4-10.3-12.7-14.4-15
				c-3.7-2-7.3-3.3-11.7-3.7v-10h73.8v10.3l-21.4,4.7c5.7,17.4,12.7,34.7,18.7,50.4c6,15.7,11.3,29.1,15.4,37.4l-0.7,17.4
				c7.7-14.7,15.4-31.7,22.4-48.1c6.7-16,13.4-32.1,17.7-45.4c1-3.7,1-5.3,1-7.7c0-6.3-7.3-7.7-13.4-8.4c-3-0.3-6-0.3-8.4-0.3v-10.3
				h64.4v10.3l-16.4,4.7L1555,968.2c-3,6.7-7.3,10-13.7,10c-4,0-8-1-12-3l-7-4c-0.7-0.3-0.7-1-0.3-2L1573.4,880.4z"/>
			<path class="st2" d="M1776.1,872c0.3,1,0.3,2-0.7,2.3l-36.4,16.7c-5.3,2.3-12.7,4.7-16.4,4.7c-19.7,0-37.4-8.7-50.4-22.7
				c-13.4-14-21.4-33.7-21.4-56.4c0-21.7,7.7-42.1,20.4-56.8c12.7-14.4,30.4-23.4,50.8-23.4c16,0,30.1,6,40.4,17.7
				c10.3,11.7,16.4,28.4,16.4,50.1l-23.7,10l-75.8,0.7c0.3,16,4.7,30.4,13,41.1c8.4,10.7,20.7,17.4,38.1,17.4c12,0,25.4-5,39.7-11.4
				c1-0.3,1.7-0.3,2,0.7L1776.1,872z M1694.6,757.8c-6.3,5.7-14,22-15.4,42.1l71.1-4c0-11-3-21.7-9-29.7c-6-7.7-15.4-12.7-26.4-12.7
				C1707.6,753.5,1700.9,754.8,1694.6,757.8z"/>
			<path class="st2" d="M1473.2,716.3c-1.3,1.3-2.3,2-3.3,2c-1.3,0-2.7-0.7-4-2l-16-16.4c-1-1-1.7-2-1.7-3c0-1,0.3-1.7,1.3-2.7
				l16-16.4c0.7-1,1.7-1.7,3.3-1.7c1,0,2.3,0.7,3.3,1.7l15.7,15c1.3,1.3,2,2.7,2,3.7c0,1.3-0.7,2.7-1.7,3.7L1473.2,716.3z"/>
		</g>
	</g>
</g>
</svg>
